<?xml version="1.0" encoding="UTF-8" standalone="no"?>
<!-- Created with Inkscape (http://www.inkscape.org/) -->

<svg
   xmlns:dc="http://purl.org/dc/elements/1.1/"
   xmlns:cc="http://creativecommons.org/ns#"
   xmlns:rdf="http://www.w3.org/1999/02/22-rdf-syntax-ns#"
   xmlns:svg="http://www.w3.org/2000/svg"
   xmlns="http://www.w3.org/2000/svg"
   xmlns:sodipodi="http://sodipodi.sourceforge.net/DTD/sodipodi-0.dtd"
   xmlns:inkscape="http://www.inkscape.org/namespaces/inkscape"
   width="744.09448819"
   height="1052.3622047"
   id="svg2"
   version="1.1"
   inkscape:version="0.48.5 r10040"
   sodipodi:docname="orbitaly.svg">
  <defs
     id="defs4">
    <inkscape:perspective
       sodipodi:type="inkscape:persp3d"
       inkscape:vp_x="0 : 526.18109 : 1"
       inkscape:vp_y="0 : 1000 : 0"
       inkscape:vp_z="744.09448 : 526.18109 : 1"
       inkscape:persp3d-origin="372.04724 : 350.78739 : 1"
       id="perspective3853" />
    <inkscape:path-effect
       effect="skeletal"
       id="path-effect2995"
       is_visible="true"
       pattern="M 0,5 C 0,2.24 2.24,0 5,0 7.76,0 10,2.24 10,5 10,7.76 7.76,10 5,10 2.24,10 0,7.76 0,5 z"
       copytype="single_stretched"
       prop_scale="1"
       scale_y_rel="false"
       spacing="0"
       normal_offset="0"
       tang_offset="0"
       prop_units="false"
       vertical_pattern="false"
       fuse_tolerance="0" />
    <inkscape:path-effect
       effect="skeletal"
       id="path-effect2991"
       is_visible="true"
       pattern="M 0,5 C 0,2.24 2.24,0 5,0 7.76,0 10,2.24 10,5 10,7.76 7.76,10 5,10 2.24,10 0,7.76 0,5 z"
       copytype="single_stretched"
       prop_scale="1"
       scale_y_rel="false"
       spacing="0"
       normal_offset="0"
       tang_offset="0"
       prop_units="false"
       vertical_pattern="false"
       fuse_tolerance="0" />
    <inkscape:path-effect
       effect="skeletal"
       id="path-effect2987"
       is_visible="true"
       pattern="M 0,5 C 0,2.24 2.24,0 5,0 7.76,0 10,2.24 10,5 10,7.76 7.76,10 5,10 2.24,10 0,7.76 0,5 z"
       copytype="single_stretched"
       prop_scale="1"
       scale_y_rel="false"
       spacing="0"
       normal_offset="0"
       tang_offset="0"
       prop_units="false"
       vertical_pattern="false"
       fuse_tolerance="0" />
  </defs>
  <sodipodi:namedview
     id="base"
     pagecolor="#ffffff"
     bordercolor="#666666"
     borderopacity="1.0"
     inkscape:pageopacity="0.0"
     inkscape:pageshadow="2"
     inkscape:zoom="0.49497475"
     inkscape:cx="902.53969"
     inkscape:cy="569.20246"
     inkscape:document-units="px"
     inkscape:current-layer="layer1"
     showgrid="false"
     inkscape:object-paths="false"
     inkscape:window-width="1538"
     inkscape:window-height="877"
     inkscape:window-x="54"
     inkscape:window-y="-8"
     inkscape:window-maximized="1" />
  <metadata
     id="metadata7">
    <rdf:RDF>
      <cc:Work
         rdf:about="">
        <dc:format>image/svg+xml</dc:format>
        <dc:type
           rdf:resource="http://purl.org/dc/dcmitype/StillImage" />
        <dc:title></dc:title>
      </cc:Work>
    </rdf:RDF>
  </metadata>
  <g
     inkscape:label="Layer 1"
     inkscape:groupmode="layer"
     id="layer1">
    <path
       sodipodi:type="arc"
       style="fill:#ffffff;fill-rule:evenodd;stroke:#ff0000;stroke-width:1;stroke-miterlimit:4;stroke-dasharray:none"
       id="path3799"
       sodipodi:cx="247.85715"
       sodipodi:cy="267.36218"
       sodipodi:rx="77.85714"
       sodipodi:ry="106.42857"
       d="m 325.71429,267.36218 a 77.85714,106.42857 0 1 1 -155.71428,0 77.85714,106.42857 0 1 1 155.71428,0 z"
       transform="matrix(1.4051261,0,0,1.0279109,-215.91339,-111.96233)" />
    <g
       id="g3837">
      <path
         transform="matrix(0.25455534,0,0,0.51507737,229.76378,-30.635783)"
         d="m 325.71429,267.36218 c 0,58.77888 -34.85783,106.42858 -77.85714,106.42858 -42.99931,0 -77.85714,-47.6497 -77.85714,-106.42858 0,-58.77888 34.85783,-106.42857 77.85714,-106.42857 42.99931,0 77.85714,47.64969 77.85714,106.42857 z"
         sodipodi:ry="106.42857"
         sodipodi:rx="77.85714"
         sodipodi:cy="267.36218"
         sodipodi:cx="247.85715"
         id="path3799-7"
         style="fill:#ffffff;fill-rule:evenodd;stroke:#ff0000;stroke-width:1;stroke-miterlimit:4;stroke-dasharray:none"
         sodipodi:type="arc" />
      <path
         transform="matrix(0.25455534,0,0,0.51507737,230.58032,79.507115)"
         d="m 325.71429,267.36218 c 0,58.77888 -34.85783,106.42858 -77.85714,106.42858 -42.99931,0 -77.85714,-47.6497 -77.85714,-106.42858 0,-58.77888 34.85783,-106.42857 77.85714,-106.42857 42.99931,0 77.85714,47.64969 77.85714,106.42857 z"
         sodipodi:ry="106.42857"
         sodipodi:rx="77.85714"
         sodipodi:cy="267.36218"
         sodipodi:cx="247.85715"
         id="path3799-7-4"
         style="fill:#cccccc;fill-rule:evenodd;stroke:#ff0000;stroke-width:1;stroke-miterlimit:4;stroke-dasharray:none"
         sodipodi:type="arc" />
    </g>
    <g
       id="g3841"
       transform="matrix(0,1,-1,0,594.12757,-128.97468)">
      <path
         sodipodi:type="arc"
         style="fill:#ffffff;fill-rule:evenodd;stroke:#ff0000;stroke-width:1;stroke-miterlimit:4;stroke-dasharray:none"
         id="path3843"
         sodipodi:cx="247.85715"
         sodipodi:cy="267.36218"
         sodipodi:rx="77.85714"
         sodipodi:ry="106.42857"
         d="m 325.71429,267.36218 c 0,58.77888 -34.85783,106.42858 -77.85714,106.42858 -42.99931,0 -77.85714,-47.6497 -77.85714,-106.42858 0,-58.77888 34.85783,-106.42857 77.85714,-106.42857 42.99931,0 77.85714,47.64969 77.85714,106.42857 z"
         transform="matrix(0.25455534,0,0,0.51507737,229.76378,-30.635783)" />
      <path
         sodipodi:type="arc"
         style="fill:#cccccc;fill-rule:evenodd;stroke:#ff0000;stroke-width:1;stroke-miterlimit:4;stroke-dasharray:none"
         id="path3845"
         sodipodi:cx="247.85715"
         sodipodi:cy="267.36218"
         sodipodi:rx="77.85714"
         sodipodi:ry="106.42857"
         d="m 325.71429,267.36218 c 0,58.77888 -34.85783,106.42858 -77.85714,106.42858 -42.99931,0 -77.85714,-47.6497 -77.85714,-106.42858 0,-58.77888 34.85783,-106.42857 77.85714,-106.42857 42.99931,0 77.85714,47.64969 77.85714,106.42857 z"
         transform="matrix(0.25455534,0,0,0.51507737,230.58032,79.507115)" />
    </g>
    <g
       id="g3847"
       transform="translate(300,0)">
      <path
         sodipodi:type="arc"
         style="fill:#ffffff;fill-rule:evenodd;stroke:#ff0000;stroke-width:1;stroke-miterlimit:4;stroke-dasharray:none"
         id="path3849"
         sodipodi:cx="247.85715"
         sodipodi:cy="267.36218"
         sodipodi:rx="77.85714"
         sodipodi:ry="106.42857"
         d="m 325.71429,267.36218 c 0,58.77888 -34.85783,106.42858 -77.85714,106.42858 -42.99931,0 -77.85714,-47.6497 -77.85714,-106.42858 0,-58.77888 34.85783,-106.42857 77.85714,-106.42857 42.99931,0 77.85714,47.64969 77.85714,106.42857 z"
         transform="matrix(0.25455534,0,0,0.51507737,229.76378,-30.635783)" />
      <path
         sodipodi:type="arc"
         style="fill:#cccccc;fill-rule:evenodd;stroke:#ff0000;stroke-width:1;stroke-miterlimit:4;stroke-dasharray:none"
         id="path3851"
         sodipodi:cx="247.85715"
         sodipodi:cy="267.36218"
         sodipodi:rx="77.85714"
         sodipodi:ry="106.42857"
         d="m 325.71429,267.36218 c 0,58.77888 -34.85783,106.42858 -77.85714,106.42858 -42.99931,0 -77.85714,-47.6497 -77.85714,-106.42858 0,-58.77888 34.85783,-106.42857 77.85714,-106.42857 42.99931,0 77.85714,47.64969 77.85714,106.42857 z"
         transform="matrix(0.25455534,0,0,0.51507737,230.58032,79.507115)" />
    </g>
  </g>
</svg>
